<?xml version="1.0" encoding="UTF-8" standalone="no"?>
<!-- Created with Inkscape (http://www.inkscape.org/) -->

<svg
   width="640"
   height="512"
   viewBox="0 0 169.33333 135.46667"
   version="1.1"
   id="svg1"
   inkscape:version="1.3.2 (091e20e, 2023-11-25)"
   sodipodi:docname="cover.svg"
   inkscape:export-filename="cover.png"
   inkscape:export-xdpi="96"
   inkscape:export-ydpi="96"
   xmlns:inkscape="http://www.inkscape.org/namespaces/inkscape"
   xmlns:sodipodi="http://sodipodi.sourceforge.net/DTD/sodipodi-0.dtd"
   xmlns="http://www.w3.org/2000/svg"
   xmlns:svg="http://www.w3.org/2000/svg">
  <sodipodi:namedview
     id="namedview1"
     pagecolor="#3fadc5"
     bordercolor="#000000"
     borderopacity="0.25"
     inkscape:showpageshadow="2"
     inkscape:pageopacity="0.0"
     inkscape:pagecheckerboard="0"
     inkscape:deskcolor="#d1d1d1"
     inkscape:document-units="px"
     inkscape:zoom="0.85169889"
     inkscape:cx="466.12718"
     inkscape:cy="442.05764"
     inkscape:window-width="1696"
     inkscape:window-height="1175"
     inkscape:window-x="207"
     inkscape:window-y="51"
     inkscape:window-maximized="0"
     inkscape:current-layer="g26" />
  <defs
     id="defs1" />
  <g
     inkscape:label="Layer 1"
     inkscape:groupmode="layer"
     id="layer1">
    <g
       id="g15"
       transform="translate(0.31065361,-7.7663402)">
      <g
         id="g30"
         transform="translate(0.09214051,-0.3106536)"
         style="stroke:#ffffff;stroke-width:13.7054;stroke-dasharray:none;stroke-opacity:1;opacity:1">
        <g
           id="g29"
           style="stroke:#ffffff;stroke-width:13.7054;stroke-dasharray:none;stroke-opacity:1">
          <path
             style="display:inline;fill:none;fill-opacity:1;stroke:#ffffff;stroke-width:13.7054;stroke-linecap:round;stroke-linejoin:round;stroke-dasharray:none;stroke-opacity:1"
             d="m 71.783066,60.546055 c -0.73115,-1.643703 -0.77642,-2.219146 -2.30296,-3.454466 -3.359822,-2.719926 -10.062761,-4.150469 -14.201773,-2.494911 -3.950668,1.580335 -7.658999,5.131942 -10.363396,8.252378 -1.256895,1.450289 -2.658787,2.859493 -3.45452,4.605966 -5.066548,11.121645 -7.155557,22.079524 -3.07068,33.777158 1.321311,3.78472 2.773682,7.22528 5.757484,9.97961 1.317819,1.21581 2.839312,2.21478 4.414074,3.07068 7.316064,3.97611 14.312851,2.02506 21.494511,-1.15158 1.30216,-0.57587 4.42469,-2.44636 5.37362,-3.83831 1.42401,-2.08908 1.09152,-6.46666 0.76772,-8.63622 -0.73116,-4.910064 -3.03045,-10.834264 -7.29274,-13.817921 -1.159388,-0.812114 -2.641714,-1.065745 -4.030212,-1.343411 -8.491818,-1.698364 -11.704182,3.072562 -17.272435,8.25236 -1.326524,1.233908 -2.618931,2.510477 -4.030234,3.646412 -4.992375,3.49474 -2.632668,1.694002 -7.100895,5.37364"
             id="path28" />
          <path
             style="display:inline;fill:none;fill-opacity:1;stroke:#ffffff;stroke-width:13.7054;stroke-linecap:round;stroke-linejoin:round;stroke-dasharray:none;stroke-opacity:1"
             d="m 130.18594,61.478016 c -0.73115,-1.643703 -0.77642,-2.219146 -2.30296,-3.454466 -3.35983,-2.719926 -10.06277,-4.150469 -14.20178,-2.494911 -3.95067,1.580335 -7.659,5.131942 -10.36339,8.252378 -1.2569,1.450289 -2.65879,2.859493 -3.454517,4.605966 -5.066546,11.121645 -7.155555,22.079524 -3.070674,33.777167 1.32131,3.78471 2.773674,7.22527 5.757471,9.9796 1.31782,1.21582 2.83931,2.21478 4.41407,3.07068 7.31607,3.97611 14.31286,2.02506 21.49452,-1.15158 1.30216,-0.57587 4.42469,-2.44636 5.37362,-3.83831 1.42401,-2.08908 1.09152,-6.46666 0.76772,-8.63621 -0.73116,-4.910073 -3.03045,-10.834273 -7.29274,-13.81793 -1.15939,-0.812114 -2.64172,-1.065745 -4.03022,-1.343411 -8.49181,-1.698364 -11.70418,3.072562 -17.27243,8.25236 -1.32653,1.233908 -2.61893,2.510477 -4.03024,3.646412 -4.992361,3.494749 -2.632654,1.693999 -7.100882,5.373639"
             id="path29" />
        </g>
      </g>
      <g
         id="g28">
        <g
           id="g27">
          <path
             style="display:inline;fill:none;fill-opacity:1;stroke:#79a3b9;stroke-width:9.21195;stroke-linecap:round;stroke-linejoin:round;stroke-dasharray:none;stroke-opacity:1"
             d="m 71.783066,60.546055 c -0.73115,-1.643703 -0.77642,-2.219146 -2.30296,-3.454466 -3.359822,-2.719926 -10.062761,-4.150469 -14.201773,-2.494911 -3.950668,1.580335 -7.658999,5.131942 -10.363396,8.252378 -1.256895,1.450289 -2.658787,2.859493 -3.45452,4.605966 -5.066548,11.121645 -7.155557,22.079524 -3.07068,33.777158 1.321311,3.78472 2.773682,7.22528 5.757484,9.97961 1.317819,1.21581 2.839312,2.21478 4.414074,3.07068 7.316064,3.97611 14.312851,2.02506 21.494511,-1.15158 1.30216,-0.57587 4.42469,-2.44636 5.37362,-3.83831 1.42401,-2.08908 1.09152,-6.46666 0.76772,-8.63622 -0.73116,-4.910064 -3.03045,-10.834264 -7.29274,-13.817921 -1.159388,-0.812114 -2.641714,-1.065745 -4.030212,-1.343411 -8.491818,-1.698364 -11.704182,3.072562 -17.272435,8.25236 -1.326524,1.233908 -2.618931,2.510477 -4.030234,3.646412 -4.992375,3.49474 -2.632668,1.694002 -7.100895,5.37364"
             id="path7" />
          <path
             style="display:inline;fill:none;fill-opacity:1;stroke:#79a3b9;stroke-width:9.21195;stroke-linecap:round;stroke-linejoin:round;stroke-dasharray:none;stroke-opacity:1"
             d="m 130.18594,61.478016 c -0.73115,-1.643703 -0.77642,-2.219146 -2.30296,-3.454466 -3.35983,-2.719926 -10.06277,-4.150469 -14.20178,-2.494911 -3.95067,1.580335 -7.659,5.131942 -10.36339,8.252378 -1.2569,1.450289 -2.65879,2.859493 -3.454517,4.605966 -5.066546,11.121645 -7.155555,22.079524 -3.070674,33.777167 1.32131,3.78471 2.773674,7.22527 5.757471,9.9796 1.31782,1.21582 2.83931,2.21478 4.41407,3.07068 7.31607,3.97611 14.31286,2.02506 21.49452,-1.15158 1.30216,-0.57587 4.42469,-2.44636 5.37362,-3.83831 1.42401,-2.08908 1.09152,-6.46666 0.76772,-8.63621 -0.73116,-4.910073 -3.03045,-10.834273 -7.29274,-13.81793 -1.15939,-0.812114 -2.64172,-1.065745 -4.03022,-1.343411 -8.49181,-1.698364 -11.70418,3.072562 -17.27243,8.25236 -1.32653,1.233908 -2.61893,2.510477 -4.03024,3.646412 -4.992361,3.494749 -2.632654,1.693999 -7.100882,5.373639"
             id="path1" />
        </g>
      </g>
      <g
         id="g26"
         transform="translate(1.0583333,-1.5875)"
         style="opacity:1">
        <g
           id="g3"
           style="display:inline;fill:none;fill-opacity:1;stroke:#ffffff;stroke-width:0.814645;stroke-dasharray:none;stroke-opacity:1"
           transform="matrix(17.408411,0,0,17.408411,13.413088,-20.295633)">
          <path
             style="display:inline;fill:none;fill-opacity:1;stroke:#ffffff;stroke-width:0.814645;stroke-linecap:round;stroke-linejoin:round;stroke-dasharray:none;stroke-opacity:1"
             d="m 3.1198785,2.4253472 c 0.2304198,0.1041382 0.4905309,0.1142482 0.7386283,0.1322917 0.10654,0.00775 0.2129409,0.018548 0.319705,0.022048 0.2675168,0.00877 0.545101,0.00924 0.8047742,-0.066146 0.1164076,-0.033796 0.143197,-0.043978 0.2204862,-0.1212673 0.01162,-0.011621 0.033669,-0.055718 0.022049,-0.044097 -0.00937,0.00937 -0.013491,0.022958 -0.022048,0.033073 C 4.9361063,2.6972286 5.2659115,2.225827 4.7514763,2.9875869 4.4014636,3.5058749 4.1437266,4.0730461 3.9136293,4.6522568 3.8685303,4.7657818 3.8199663,4.8781239 3.7813376,4.9940104 3.692453,5.260664 3.6269972,5.5291865 3.6269972,5.8098089 c 0,0.076115 -0.00351,0.319705 0.1102431,0.319705"
             id="path2" />
          <path
             style="fill:none;fill-opacity:1;stroke:#ffffff;stroke-width:0.814645;stroke-linecap:round;stroke-linejoin:round;stroke-dasharray:none;stroke-opacity:1"
             d="m 3.4175348,4.189236 c 0.011025,0.0147 0.017785,0.033905 0.033073,0.044097 0.019338,0.012893 0.043598,0.016412 0.066146,0.022048 0.051044,0.012761 0.1026266,0.023376 0.1543402,0.033073 0.2669432,0.050052 0.1558742,0.027034 0.4630208,0.044097 0.3424703,0.019026 0.29879,0.02661 0.6283854,0.033073 0.2002581,0.00393 0.3957738,0.00391 0.5953125,0.022048"
             id="path3" />
        </g>
        <g
           id="g11"
           style="display:inline;stroke:#79b9ac;stroke-opacity:1"
           transform="matrix(17.408411,0,0,17.408411,13.413088,-19.98498)">
          <path
             style="display:inline;fill:none;fill-opacity:1;stroke:#79b9ac;stroke-width:0.529167;stroke-linecap:round;stroke-linejoin:round;stroke-dasharray:none;stroke-opacity:1"
             d="m 3.1198785,2.4253472 c 0.2304198,0.1041382 0.4905309,0.1142482 0.7386283,0.1322917 0.10654,0.00775 0.2129409,0.018548 0.319705,0.022048 0.2675168,0.00877 0.545101,0.00924 0.8047742,-0.066146 0.1164076,-0.033796 0.143197,-0.043978 0.2204862,-0.1212673 0.01162,-0.011621 0.033669,-0.055718 0.022049,-0.044097 -0.00937,0.00937 -0.013491,0.022958 -0.022048,0.033073 C 4.9361063,2.6972286 5.2659115,2.225827 4.7514763,2.9875869 4.4014636,3.5058749 4.1437266,4.0730461 3.9136293,4.6522568 3.8685303,4.7657818 3.8199663,4.8781239 3.7813376,4.9940104 3.692453,5.260664 3.6269972,5.5291865 3.6269972,5.8098089 c 0,0.076115 -0.00351,0.319705 0.1102431,0.319705"
             id="path8" />
          <path
             style="fill:none;fill-opacity:1;stroke:#79b9ac;stroke-width:0.529167;stroke-linecap:round;stroke-linejoin:round;stroke-dasharray:none;stroke-opacity:1"
             d="m 3.4175348,4.189236 c 0.011025,0.0147 0.017785,0.033905 0.033073,0.044097 0.019338,0.012893 0.043598,0.016412 0.066146,0.022048 0.051044,0.012761 0.1026266,0.023376 0.1543402,0.033073 0.2669432,0.050052 0.1558742,0.027034 0.4630208,0.044097 0.3424703,0.019026 0.29879,0.02661 0.6283854,0.033073 0.2002581,0.00393 0.3957738,0.00391 0.5953125,0.022048"
             id="path9" />
        </g>
      </g>
      <path
         style="fill:none;fill-opacity:1;stroke:#b7b7b7;stroke-width:7.9375;stroke-linecap:round;stroke-linejoin:round;stroke-dasharray:none;stroke-opacity:1"
         d="m 142.27935,62.13072 c 3.97636,-1.124233 8.09107,-1.590913 12.11549,-2.485229 1.54309,-0.342908 3.56974,-1.395161 2.79588,-0.621305"
         id="path6" />
      <path
         style="fill:none;fill-opacity:1;stroke:#b7b7b7;stroke-width:7.9375;stroke-linecap:round;stroke-linejoin:round;stroke-dasharray:none;stroke-opacity:1"
         d="m 147.87111,113.69922 c 12.28682,5.49673 7.57779,4.4357 13.35811,5.59176"
         id="path11" />
      <path
         style="fill:none;fill-opacity:1;stroke:#b7b7b7;stroke-width:7.9375;stroke-linecap:round;stroke-linejoin:round;stroke-dasharray:none;stroke-opacity:1"
         d="m 24.541635,64.926603 c -2.668495,-1.4132 -5.489202,-1.360037 -8.387648,-1.553268 -3.887802,-0.259186 -1.075082,-0.545679 -4.34915,0"
         id="path12" />
      <path
         style="fill:none;fill-opacity:1;stroke:#b7b7b7;stroke-width:7.9375;stroke-linecap:round;stroke-linejoin:round;stroke-dasharray:none;stroke-opacity:1"
         d="M 22.36706,86.051048 C 20.108656,86.376705 10.217727,86.395543 8.3876472,88.225624"
         id="path13" />
      <path
         style="fill:none;fill-opacity:1;stroke:#b7b7b7;stroke-width:7.9375;stroke-linecap:round;stroke-linejoin:round;stroke-dasharray:none;stroke-opacity:1"
         d="m 27.026864,112.4566 c -15.006825,6.1139 -3.62695,2.02341 -11.18353,4.0385 -1.553531,0.41427 -2.755411,0.93196 -4.349151,0.93196"
         id="path14" />
      <path
         style="fill:none;fill-opacity:1;stroke:#b7b7b7;stroke-width:7.9375;stroke-linecap:round;stroke-linejoin:round;stroke-dasharray:none;stroke-opacity:1"
         d="m 143.52197,85.119087 c 4.70039,-0.480793 9.31965,1.242616 13.97941,1.242616"
         id="path15" />
    </g>
    <rect
       style="fill:#d53737;fill-opacity:1;stroke:none;stroke-width:7.9375;stroke-linecap:round;stroke-linejoin:round;stroke-dasharray:none;stroke-opacity:1"
       id="rect15"
       width="94.128036"
       height="14.600719"
       x="41.627583"
       y="119.91229"
       ry="3.4171896" />
    <g
       id="g25"
       transform="translate(1.8639216)"
       style="opacity:0.58222222">
      <path
         style="fill:none;fill-opacity:1;stroke:#000000;stroke-width:2.32423;stroke-linecap:round;stroke-linejoin:round;stroke-dasharray:none;stroke-opacity:1"
         d="m 74.428487,122.47886 c 0.585519,0.33403 1.153298,0.6914 1.736686,1.02915 0.165962,0.0961 0.352784,0.15433 0.514573,0.25729 0.143253,0.0912 0.29814,0.28075 0.257286,0.3216 -0.04762,0.0476 -1.280975,-0.11317 -1.415077,-0.12864 -1.683777,-0.19428 -3.38277,-0.44072 -5.081413,-0.38593 -0.663568,0.0214 -1.333663,0.19297 -1.993971,0.19297"
         id="path22" />
      <path
         style="fill:none;fill-opacity:1;stroke:#000000;stroke-width:3.96875;stroke-linecap:round;stroke-linejoin:round;stroke-dasharray:none;stroke-opacity:1"
         d="m 62.676191,130.9205 c 3.420346,-0.85509 0.37778,-0.13754 9.665272,0.21967 3.040337,0.11693 6.072912,0.10983 9.11611,0.10983 1.025104,0 2.050817,0.0353 3.075313,0 1.100111,-0.0379 2.195684,-0.16281 3.29498,-0.21967 4.131929,-0.21372 8.273005,-0.47527 12.411084,-0.54916 2.63286,-0.047 5.29304,0.18891 7.90795,-0.21967 0.48259,-0.0754 0.95236,-0.21762 1.42782,-0.32949 0.47485,-0.11173 0.43933,0.0394 0.43933,-0.21967"
         id="path24" />
      <path
         style="fill:none;fill-opacity:1;stroke:#000000;stroke-width:2.32423;stroke-linecap:round;stroke-linejoin:round;stroke-dasharray:none;stroke-opacity:1"
         d="m 95.813329,122.78951 c -0.585519,0.33403 -1.153295,0.6914 -1.736685,1.02915 -0.16596,0.0961 -0.35279,0.15433 -0.51457,0.25729 -0.14326,0.0912 -0.29814,0.28075 -0.25729,0.3216 0.0476,0.0476 1.28097,-0.11317 1.41508,-0.12864 1.683774,-0.19428 3.382767,-0.44072 5.08141,-0.38593 0.663566,0.0214 1.333666,0.19297 1.993976,0.19297"
         id="path25" />
    </g>
  </g>
</svg>
