<?xml version="1.0" encoding="UTF-8" standalone="no"?>
<!-- Created with Inkscape (http://www.inkscape.org/) -->

<svg
   width="32"
   height="32"
   viewBox="0 0 8.4666664 8.4666666"
   version="1.1"
   id="svg1"
   inkscape:version="1.3.2 (091e20e, 2023-11-25)"
   sodipodi:docname="sprites.svg"
   inkscape:export-filename="8.png"
   inkscape:export-xdpi="96"
   inkscape:export-ydpi="96"
   xmlns:inkscape="http://www.inkscape.org/namespaces/inkscape"
   xmlns:sodipodi="http://sodipodi.sourceforge.net/DTD/sodipodi-0.dtd"
   xmlns="http://www.w3.org/2000/svg"
   xmlns:svg="http://www.w3.org/2000/svg">
  <sodipodi:namedview
     id="namedview1"
     pagecolor="#b28383"
     bordercolor="#000000"
     borderopacity="0.25"
     inkscape:showpageshadow="2"
     inkscape:pageopacity="0.0"
     inkscape:pagecheckerboard="0"
     inkscape:deskcolor="#d1d1d1"
     inkscape:document-units="mm"
     inkscape:zoom="24"
     inkscape:cx="15.125"
     inkscape:cy="16.604167"
     inkscape:window-width="2112"
     inkscape:window-height="1175"
     inkscape:window-x="73"
     inkscape:window-y="135"
     inkscape:window-maximized="0"
     inkscape:current-layer="layer7"
     showgrid="true">
    <inkscape:grid
       id="grid1"
       units="px"
       originx="0"
       originy="0"
       spacingx="1.0583333"
       spacingy="1.0583333"
       empcolor="#0099e5"
       empopacity="0.30196078"
       color="#0099e5"
       opacity="0.10196078"
       empspacing="2"
       dotted="false"
       gridanglex="30"
       gridanglez="30"
       visible="true" />
  </sodipodi:namedview>
  <defs
     id="defs1" />
  <g
     inkscape:label="highlight"
     inkscape:groupmode="layer"
     id="layer1"
     style="display:none">
    <rect
       style="fill:none;stroke:#f3ff36;stroke-width:0.529167;stroke-linecap:round;stroke-linejoin:round;stroke-dasharray:none;stroke-opacity:0.782383"
       id="rect1"
       width="4.1892362"
       height="4.1671872"
       x="2.0946181"
       y="2.1056423" />
  </g>
  <g
     inkscape:groupmode="layer"
     id="layer2"
     inkscape:label="1"
     style="display:none">
    <path
       style="fill:none;fill-opacity:1;stroke:#86b979;stroke-width:0.529167;stroke-linecap:round;stroke-linejoin:round;stroke-dasharray:none;stroke-opacity:1"
       d="M 3.3403645,3.1970485 C 3.4745385,2.947585 3.7082216,2.7961187 3.9026041,2.6017361 3.9632657,2.5410746 4.0206183,2.477188 4.0789931,2.4143229 4.1122094,2.3785515 4.288397,2.1828125 4.2994791,2.1828125 c 0.00368,0 0,0.00735 0,0.011024 0,0.051447 0,0.1028935 0,0.1543402 0,0.9326202 0.00532,-0.4299343 -0.022048,0.760677 -0.012967,0.5640853 0.029877,1.1251126 0.07717,1.6867188 0.013623,0.1617839 0.034334,0.3230067 0.044097,0.4850693 0.011964,0.1986005 0.011025,0.3967358 0.011025,0.5953125"
       id="path1" />
  </g>
  <g
     inkscape:groupmode="layer"
     id="layer3"
     inkscape:label="2"
     style="display:none">
    <path
       style="fill:none;fill-opacity:1;stroke:#adb979;stroke-width:0.529167;stroke-linecap:round;stroke-linejoin:round;stroke-dasharray:none;stroke-opacity:1"
       d="M 3.0206598,3.175 C 3.181088,3.0026636 3.3483425,2.8324773 3.5608506,2.7230035 3.6209097,2.6920639 3.6848695,2.6691891 3.7482639,2.6458333 4.0807621,2.523334 4.3019392,2.4834508 4.6522568,2.5686632 4.7201097,2.5851679 4.8707375,2.6255141 4.9168401,2.7009547 5.03605,2.8960257 4.7270437,3.3469717 4.6302083,3.4836806 4.568172,3.5712611 4.5047272,3.6585233 4.4317708,3.7372395 4.1818964,4.006841 3.8494353,4.2044344 3.5498264,4.4097223 c -0.314266,0.21533 -0.6920581,0.4360066 -0.8268229,0.8157985 -0.065144,0.1835872 -0.1163342,0.5370295 0.07717,0.6724827 0.1852348,0.1296641 0.415535,0.09694 0.6283854,0.1102429 0.084674,0.00529 0.16911,0.013928 0.2535592,0.022048 0.2023779,0.01946 0.4033501,0.054656 0.6063366,0.066146 0.09906,0.00561 0.1984621,0.0022 0.2976563,0 0.066231,-0.00148 0.1333074,0.00108 0.1984375,-0.011025 C 5.0257963,6.0405324 5.1267449,5.9878914 5.3357639,5.853905 5.4327199,5.791754 5.6290064,5.6087281 5.699566,5.5452244 5.740172,5.5086794 5.781117,5.4724914 5.8208333,5.4349815 c 0.026448,-0.024979 0.051447,-0.051447 0.07717,-0.07717 0.00368,-0.00368 0.00735,-0.0147 0.011025,-0.011025 0.00601,0.00601 -0.00953,0.069717 -0.011025,0.07717"
       id="path2" />
  </g>
  <g
     inkscape:groupmode="layer"
     id="layer4"
     inkscape:label="3"
     style="display:none">
    <path
       style="fill:none;fill-opacity:1;stroke:#b99579;stroke-width:0.529167;stroke-linecap:round;stroke-linejoin:round;stroke-dasharray:none;stroke-opacity:1"
       d="m 3.2852431,2.3592014 c 0.25708,-0.00301 0.5149789,-0.017028 0.7717012,-0.033073 0.5199954,-0.0325 0.2564619,-0.026756 0.6724827,-0.055122 0.073417,-0.00501 0.1469348,-0.00873 0.220486,-0.011024 0.030751,-9.604e-4 0.2832746,-0.00504 0.3086807,0.033073 C 5.2859344,2.3340664 5.0734938,2.5443012 5.0601562,2.5576388 4.9283762,2.6894189 4.788772,2.8107481 4.6302083,2.9104166 4.4621584,3.0160478 4.2882677,3.1031719 4.1341145,3.2301214 4.0883371,3.2678206 3.96875,3.3727289 3.96875,3.4285589 c 0,0.00494 0.039225,-0.00849 0.07717,-0.011025 0.033,-0.0022 0.06626,0.00275 0.099219,0 0.055417,-0.00462 0.1098212,-0.019338 0.1653646,-0.022048 0.08966,-0.00437 0.4265753,-6.35e-4 0.5291667,0.011025 0.299825,0.034071 0.5758997,0.101405 0.7276041,0.3858506 0.1652096,0.3097683 0.042318,0.774764 -0.033073,1.0914062 -0.053714,0.2255975 -0.108766,0.5013097 -0.2425348,0.6945312 -0.029581,0.042729 -0.065228,0.084273 -0.1102431,0.1102432 -0.1419995,0.081923 -0.4282729,0.088194 -0.5842881,0.088194 -0.3484928,0 -0.7122081,-0.076847 -1.047309,-0.1653645 C 3.4531768,5.5858425 3.3585753,5.5531011 3.2631943,5.5231778 3.0114084,5.4441862 2.8919199,5.4091617 2.6899306,5.2475701"
       id="path3" />
  </g>
  <g
     inkscape:groupmode="layer"
     id="layer5"
     inkscape:label="4"
     style="display:none">
    <g
       id="g10"
       style="stroke:#b98bae;stroke-opacity:1">
      <path
         style="fill:none;fill-opacity:1;stroke:#b98bae;stroke-width:0.529167;stroke-linecap:round;stroke-linejoin:round;stroke-dasharray:none;stroke-opacity:1"
         d="M 3.96875,2.2489583 C 3.6977809,2.5727296 3.3803468,2.8551401 3.175,3.2301214 3.0182571,3.5163474 3.1090962,3.3830551 2.998611,3.6380208 2.9610473,3.7247065 2.888462,3.8513123 2.8442708,3.935677 c -0.015251,0.029116 -0.029398,0.058796 -0.044097,0.088194 -0.00368,0.00735 -0.011025,0.013832 -0.011025,0.022048 0,0.018738 0.036572,-0.00837 0.055121,-0.011025 0.1165895,-0.016655 0.1461281,-0.013279 0.2756078,0 0.5157094,0.052893 -0.00233,0.020682 0.6614583,0.066146 0.4413755,0.030231 0.8817742,0.051865 1.3229166,0.088194 0.1286529,0.010594 0.2573121,0.021172 0.3858506,0.033073 0.069907,0.00647 0.1395439,0.015693 0.2094619,0.022048 0.01098,0.00101 0.043531,0.00349 0.033073,0 C 5.700497,4.233642 5.666492,4.229655 5.633419,4.222307"
         id="path4" />
      <path
         style="display:inline;fill:none;fill-opacity:1;stroke:#b98bae;stroke-width:0.529167;stroke-linecap:round;stroke-linejoin:round;stroke-dasharray:none;stroke-opacity:1"
         d="m 4.7624999,2.9875869 c -0.035535,0.1903907 -0.058183,0.3802282 -0.07717,0.5732637 -0.042449,0.4315655 -0.030987,0.2949583 -0.044097,0.7276041 -0.0096,0.3169447 -0.028778,0.6439927 0.022048,0.9591146 0.023868,0.1479891 0.054034,0.2950146 0.088194,0.4409723 0.015523,0.066327 0.042936,0.1137264 0.066146,0.044097"
         id="path5" />
    </g>
  </g>
  <g
     inkscape:groupmode="layer"
     id="layer6"
     inkscape:label="5"
     style="display:none">
    <path
       style="display:inline;fill:none;fill-opacity:1;stroke:#8479b9;stroke-width:0.529167;stroke-linecap:round;stroke-linejoin:round;stroke-dasharray:none;stroke-opacity:1"
       d="M 5.0711806,2.2930555 C 4.8590707,2.4023134 4.6183483,2.4468372 4.3876735,2.5025173 c -0.1534102,0.03703 -0.3152373,0.07717 -0.474045,0.07717 -0.086734,0 -0.1437333,-0.00516 -0.2204863,-0.033073 -0.027511,-0.010004 -0.098225,-0.066808 -0.1322916,-0.044097 -0.012973,0.00865 -0.019129,0.026101 -0.033073,0.033073 -0.00329,0.00164 -0.00842,-0.0026 -0.011025,0 -0.00828,0.00828 0.00911,0.019657 0.011025,0.022049 0.027128,0.03391 0.062206,0.082788 0.07717,0.1212674 0.035037,0.090095 0.047147,0.2046216 0.055121,0.2976563 0.011319,0.1320495 0.016039,0.3351551 0.011025,0.4630208 -0.01016,0.259108 -0.00866,0.2789335 -0.066146,0.4960937 -0.016663,0.062949 -0.038685,0.1244047 -0.055121,0.1874131 -0.00564,0.02163 -0.00488,0.044653 -0.011025,0.066146 -0.00143,0.005 -0.011025,0.00583 -0.011025,0.011025 0,0.00371 0.020037,-0.011345 0.033073,-0.033073 0.00598,-0.00996 0.00346,-0.024249 0.011025,-0.033073 C 3.6367906,4.0583806 3.72054,3.9769806 3.8144094,3.9356781 4.1504818,3.7878062 4.755868,3.9222271 4.9829856,4.2112859 5.152212,4.4266646 5.1642638,4.6420135 5.1703989,4.9058171 c 0.00517,0.2222973 0.00695,0.2762901 -0.07717,0.5181423 C 5.0320619,5.5998146 4.9626543,5.6935195 4.7735243,5.6885424 4.6153493,5.6843805 4.463325,5.646303 4.3105035,5.6113722 4.119191,5.5676437 3.938579,5.5164791 3.7592881,5.4349835 3.587188,5.356756 3.4235831,5.2614171 3.2521702,5.1814243"
       id="path6" />
  </g>
  <g
     inkscape:groupmode="layer"
     id="layer7"
     inkscape:label="6"
     style="display:none">
    <path
       style="display:inline;fill:none;fill-opacity:1;stroke:#79a3b9;stroke-width:0.529167;stroke-linecap:round;stroke-linejoin:round;stroke-dasharray:none;stroke-opacity:1"
       d="M 4.949913,2.7891494 C 4.9079493,2.6947309 4.9052794,2.6616728 4.8176214,2.5907118 4.6246174,2.4344703 4.2395756,2.3522947 4.0018229,2.4473958 3.7748755,2.5381748 3.5618581,2.7421935 3.4065104,2.921441 3.3343088,3.0047504 3.2537757,3.085701 3.2080729,3.1860244 2.9170339,3.8248902 2.7970339,4.4543495 3.0316839,5.126302 3.107604,5.3437091 3.1910096,5.5413473 3.3624131,5.699566 3.4380678,5.7694009 3.5255099,5.8267904 3.6159723,5.8759547 4.0362311,6.1043565 4.438147,5.9922819 4.8506943,5.8098089 4.9254859,5.7767283 5.1048573,5.6692823 5.1593749,5.5893228 5.241196,5.4693187 5.2220333,5.2178545 5.2034722,5.0932291 5.1614646,4.8111785 5.0293944,4.4708712 4.7845485,4.2994791 4.7179087,4.2528312 4.632803,4.2382619 4.553038,4.2223089 4.0652411,4.1247496 3.8807128,4.3988079 3.5608506,4.6963541 3.4846535,4.7672352 3.4104103,4.8405642 3.3293401,4.905816 3.0425551,5.1065657 3.1781059,5.0031252 2.921441,5.2144964"
       id="path7" />
  </g>
  <g
     inkscape:groupmode="layer"
     id="layer8"
     inkscape:label="7"
     style="display:none">
    <g
       id="g11"
       style="stroke:#79b9ac;stroke-opacity:1">
      <path
         style="display:inline;fill:none;fill-opacity:1;stroke:#79b9ac;stroke-width:0.529167;stroke-linecap:round;stroke-linejoin:round;stroke-dasharray:none;stroke-opacity:1"
         d="m 3.1198785,2.4253472 c 0.2304198,0.1041382 0.4905309,0.1142482 0.7386283,0.1322917 0.10654,0.00775 0.2129409,0.018548 0.319705,0.022048 0.2675168,0.00877 0.545101,0.00924 0.8047742,-0.066146 0.1164076,-0.033796 0.143197,-0.043978 0.2204862,-0.1212673 0.01162,-0.011621 0.033669,-0.055718 0.022049,-0.044097 -0.00937,0.00937 -0.013491,0.022958 -0.022048,0.033073 C 4.9361063,2.6972286 5.2659115,2.225827 4.7514763,2.9875869 4.4014636,3.5058749 4.1437266,4.0730461 3.9136293,4.6522568 3.8685303,4.7657818 3.8199663,4.8781239 3.7813376,4.9940104 3.692453,5.260664 3.6269972,5.5291865 3.6269972,5.8098089 c 0,0.076115 -0.00351,0.319705 0.1102431,0.319705"
         id="path8" />
      <path
         style="fill:none;fill-opacity:1;stroke:#79b9ac;stroke-width:0.529167;stroke-linecap:round;stroke-linejoin:round;stroke-dasharray:none;stroke-opacity:1"
         d="m 3.4175348,4.189236 c 0.011025,0.0147 0.017785,0.033905 0.033073,0.044097 0.019338,0.012893 0.043598,0.016412 0.066146,0.022048 0.051044,0.012761 0.1026266,0.023376 0.1543402,0.033073 0.2669432,0.050052 0.1558742,0.027034 0.4630208,0.044097 0.3424703,0.019026 0.29879,0.02661 0.6283854,0.033073 0.2002581,0.00393 0.3957738,0.00391 0.5953125,0.022048"
         id="path9" />
    </g>
  </g>
  <g
     inkscape:groupmode="layer"
     id="layer9"
     inkscape:label="8"
     style="display:inline">
    <path
       style="display:inline;fill:none;fill-opacity:1;stroke:#94b979;stroke-width:0.529167;stroke-linecap:round;stroke-linejoin:round;stroke-dasharray:none;stroke-opacity:1"
       d="m 4.1671874,2.2048611 c -0.1344361,0.010417 -0.2961457,-0.013941 -0.4189235,0.055121 -0.079516,0.044728 -0.097269,0.076733 -0.1543404,0.143316 -0.022048,0.025723 -0.048715,0.048119 -0.066146,0.07717 -0.016153,0.026923 -0.024215,0.058073 -0.033073,0.088195 -0.064318,0.2186812 0.00405,0.4393413 0.1543405,0.6063368 0.1194149,0.1326832 0.2845747,0.2213641 0.4299479,0.3197047 0.2989702,0.2022446 0.622414,0.4425627 0.8598958,0.7165801 0.1687529,0.1947148 0.286276,0.423101 0.3527777,0.6724824 C 5.3668194,5.1655925 5.3930852,5.7099902 5.0270831,5.8098088 4.7770436,5.8780018 4.499569,5.8485888 4.2443575,5.8539058 3.9865503,5.8592772 3.48337,5.886846 3.2521702,5.7877603 3.1333942,5.7368564 3.1170538,5.6644148 3.0978297,5.5452255 3.0632106,5.3305865 3.1325103,5.160419 3.1970485,4.9609374 3.2520882,4.7908151 3.3214175,4.5417832 3.4506077,4.4097223 3.6789823,4.1762724 3.830371,4.0814484 4.0789931,3.9136285 4.3650783,3.7205208 4.6012562,3.5952583 4.7514755,3.2631943 4.8200288,3.1116555 4.8078807,2.9141163 4.7735233,2.7560764 4.7653741,2.7185863 4.7493377,2.6831557 4.7404514,2.6458333 4.7184066,2.5532449 4.7120629,2.3749101 4.6412327,2.3040798 4.5669226,2.2297698 4.2669063,2.2001126 4.1671874,2.2048611 c -0.030269,0.00144 -0.058099,0.018508 -0.088194,0.022049 -0.071604,0.00842 -0.1418579,-0.011753 -0.2094619,0.022049"
       id="path10" />
  </g>
</svg>
